#!OML:ASF E:/inclinewalkrobotboard/Project1/Captureday1/Session1/subject1.ASF
:FULLY-SPECIFIED
:DEGREES
38
root 0 0 0 -3.342782691441169 -3.8809779288617197 -2.7797907672762263
lowerback 9.696869275321975 -0.09514161527423981 -0.21523970230605838
upperback -1.8450215019223475 -0.07450201967734627 1.380172085279097
thorax -7.386442075368537 -0.051649414985914355 1.5893711579446728
lowerneck -16.458193442546182 -1.7390756965912162 1.0692369436428701
upperneck 18.676266749428535 -2.419385123753375 -1.585675399115768
head 9.009679232873411 -1.1026801367288943 -0.9905323194513349
rclavicle -8.501661474203574E-16 1.2255982762775456E-15
rhumerus -24.363255520642625 -27.580880146458178 -78.23059634693522
rradius 40.95546969910968
rwrist 20.954589048342736
rhand -20.693198742908763 8.143629261776269
rfingers 7.125019999999973
rthumb 5.674638642111439 -21.937822443840012
lclavicle 1.7043357887253404E-15 -1.072663701994974E-15
lhumerus -38.82761179379394 1.552643196122539 76.9003364549551
lradius 33.63077759908083
lwrist 8.889413400738992
lhand -26.794939631856842 23.483401014909237
lfingers 7.125019999999966
lthumb -0.201309704861389 53.434153594053285
rfemur -10.582666188486474 3.8802012980489975 20.200335941338427
rtibia 29.489210293802703
rfoot -6.497976720697679 -5.258567389668087
rtoes 2.997156808093078
lfemur -14.911047949986438 2.4869448563160512 -13.701686125314922
ltibia 34.59166993405671
lfoot -9.386551623052707 -0.04841335862976992
ltoes -31.201493217287098
39
root 0 0 0 -3.343187303627059 -3.8805377305581787 -2.779205532366173
lowerback 9.695724180124817 -0.09555612889023302 -0.21603644134110933
upperback -1.8457211608156672 -0.07513752069044144 1.380223802962824
thorax -7.386574951562609 -0.051942222526326964 1.5899855505526235
lowerneck -16.459529717303063 -1.7389502670866286 1.0692649467944304
upperneck 18.677631021830713 -2.4192415993544554 -1.5860300072918554
head 9.010413476645585 -1.1025950970307905 -0.9906586457635336
rclavicle -8.395681119770088E-16 1.2239461519239688E-15
rhumerus -24.37533834435368 -27.595112311539378 -78.2343589757502
rradius 40.92822090784896
rwrist 20.952838654637134
rhand -20.68957379034913 8.138968393963387
rfingers 7.125019999999973
rthumb 5.678083875280719 -21.94198834699573
lclavicle 1.7084222987434202E-15 -1.0731262629455765E-15
lhumerus -38.829164883616535 1.558780347637188 76.90013749128944
lradius 33.62015431443719
lwrist 8.881552454921383
lhand -26.793900254691145 23.48390870997287
lfingers 7.125019999999966
lthumb -0.20024001158554672 53.43463087549612
rfemur -10.58237927726224 3.8798088339043844 20.199109185171565
rtibia 29.488723479872874
rfoot -6.496991977019427 -5.258163036123189
rtoes 2.997352736362577
lfemur -14.908006138339932 2.485638338671924 -13.70400573659148
ltibia 34.59142321864115
lfoot -9.38561117759469 -0.04980042826409692
ltoes -31.192764781166666
40
root 0 0 0 -3.0020190580759376 -3.6527840591924026 -2.7352666363487117
lowerback 9.556759717876773 -0.35724832417388674 -0.23888410265811788
upperback -1.6207231902888892 -0.4443781472569226 1.4080336919259553
thorax -7.080167289456454 -0.2349208179600778 1.6766736514028593
lowerneck -15.734651586295959 -1.4436896580568268 1.333861048231301
upperneck 16.409981220920148 -1.90293201983927 -1.8495436868091948
head 8.030299925061916 -0.9143558269837704 -1.0347493077516123
rclavicle -4.458204927672114E-15 4.498338100822385E-15
rhumerus -24.49979759515662 -27.629810220695656 -78.1995249716749
rradius 42.56757079654368
rwrist 21.9779883213536
rhand -21.17987974129852 7.9422704818199
rfingers 7.125019999999974
rthumb 5.203639949806143 -22.150927336641416
lclavicle -3.773729174634943E-15 2.2408804637970066E-15
lhumerus -38.71555779534373 2.6221464233884517 77.13280741168816
lradius 31.238932824074528
lwrist 7.019178278401217
lhand -26.545501543587896 23.33293500888895
lfingers 7.125019999999968
lthumb 0.04904785774981146 53.2957485989782
rfemur -10.894335978805694 3.993069615723818 20.749657423561214
rtibia 30.262909380640785
rfoot -6.720819478237979 -5.432322150376905
rtoes 3.032515502750342
lfemur -13.60291463762573 1.9983979192080188 -13.599789319647147
ltibia 33.84504030342673
lfoot -10.702693311245397 0.7917701843923668
ltoes -32.88184121860117
41
root 0 0 0 -3.6436087361300253 -4.085711506388976 -2.8445746180447014
lowerback 9.181957469553348 0.3320307079015236 -0.10527951203245023
upperback -2.8132704873913825 0.5328764615128645 1.3879564080045856
thorax -8.096175246207062 0.25578223924303645 1.4531263363248845
lowerneck -18.074601024831104 -2.5352368572011414 0.06168920529628841
upperneck 18.128050086937883 -3.479882971896293 -0.8081670460068391
head 9.10380867434693 -1.6129326210869852 -0.7096225738694006
rclavicle 2.3639430754613966E-15 7.31552134134679E-16
rhumerus -24.767994589195887 -27.79963770116804 -78.46668869977677
rradius 39.41798986134141
rwrist 20.253124439356615
rhand -20.434142654756062 8.26732451934208
rfingers 7.125019999999973
rthumb 5.926122421652584 -21.792794877398464
lclavicle 5.23641107270723E-15 -1.6461468844197414E-15
lhumerus -38.720736281315716 0.8284079525830148 76.79194249956122
lradius 34.99098954976779
lwrist 10.026945311251431
lhand -27.01346646199715 23.73879321374686
lfingers 7.1250199999999655
lthumb -0.4175537016327908 53.693169415314046
rfemur -10.439994839528325 3.8559459637541904 20.03528157271907
rtibia 29.181222271327847
rfoot -6.4554226784734725 -5.205104083046673
rtoes 2.9665856695640658
lfemur -15.386465787255329 2.8227611899241865 -13.730156836834626
ltibia 34.96439911400737
lfoot -8.887615841227126 -0.4355199639400822
ltoes -30.745043206580007
